# Blender v2.80 (sub 75) OBJ File: ''
# www.blender.org
mtllib tiltedCube.mtl
o Cube_Cube.001
v 0.195917 1.191488 1.717263
v -1.400577 1.954010 0.784650
v 0.195917 -0.356854 0.451309
v -1.400577 0.405668 -0.481304
v 1.400577 2.202032 0.481304
v -0.195917 2.964553 -0.451309
v 1.400577 0.653690 -0.784650
v -0.195917 1.416212 -1.717263
vt 0.625000 0.000000
vt 0.375000 0.250000
vt 0.375000 0.000000
vt 0.625000 0.250000
vt 0.375000 0.500000
vt 0.625000 0.500000
vt 0.375000 0.750000
vt 0.625000 0.750000
vt 0.375000 1.000000
vt 0.125000 0.750000
vt 0.125000 0.500000
vt 0.875000 0.500000
vt 0.625000 1.000000
vt 0.875000 0.750000
vn -0.6023 -0.5053 0.6180
vn 0.0000 -0.7742 -0.6330
vn 0.6023 0.5053 -0.6180
vn -0.0000 0.7742 0.6330
vn 0.7982 -0.3813 0.4663
vn -0.7982 0.3813 -0.4663
usemtl Material.001
s off
f 2/1/1 3/2/1 1/3/1
f 4/4/2 7/5/2 3/2/2
f 8/6/3 5/7/3 7/5/3
f 6/8/4 1/9/4 5/7/4
f 7/5/5 1/10/5 3/11/5
f 4/12/6 6/8/6 8/6/6
f 2/1/1 4/4/1 3/2/1
f 4/4/2 8/6/2 7/5/2
f 8/6/3 6/8/3 5/7/3
f 6/8/4 2/13/4 1/9/4
f 7/5/5 5/7/5 1/10/5
f 4/12/6 2/14/6 6/8/6
